<?xml version="1.0" encoding="UTF-8"?>
<svg id="_文字" data-name="文字" xmlns="http://www.w3.org/2000/svg" width="799" height="636" viewBox="0 0 799 636">
  <path d="M459.93,251.08c-3.99,3.62-9.23,7.83-16.01,12.41-13.47,9.11-22.46,8.83-38.76,8.34-8.55-.26-18.24-.55-29.83,.62-16.42,1.67-30.46,6.75-41.18,12.06-12.71,6.29-15.88,23-6.43,33.58l8.63,9.67c.17-.15,17.33-14.91,42.82-17.5,9.1-.92,17.1-.68,24.83-.45,18.46,.56,37.55,1.14,61.19-14.84,9.98-6.74,17.61-13.09,23.42-18.69l-28.69-25.21Z" style="fill: #008c72;"/>
  <path d="M434.19,275.13l-13.45-35.54c13.56-5.13,17.84-11.29,24.32-20.6,7.79-11.21,17.48-25.15,42.07-34.45,24.59-9.3,41.08-5.27,54.34-2.02,11.02,2.7,25.03,2.96,38.59-2.17l5.16,13.64c4.81,12.71-3.76,26.52-17.28,27.87-14.42,1.44-27-.35-35.5-2.42-11.02-2.7-18.3-4.48-31.86,.65-13.56,5.13-17.84,11.29-24.32,20.6-7.79,11.21-17.48,25.15-42.07,34.45Z" style="fill: #008c72;"/>
  <g>
    <path d="M357.88,285.76l6.48,15.89-2.98,1.22-3.38-8.28-1.75-4.71-.05,.02,.87,14.72-2.72,1.11-9.66-11.14-.05,.02,2.06,4.58,3.38,8.28-3.01,1.23-6.48-15.89,4.81-1.97,6.4,7.5,2.48,3.17,.05-.02-.42-3.99-.71-9.85,4.67-1.91Z" style="fill: #fff;"/>
    <path d="M367.56,283.45l4.12,16.66-3.48,.86-4.12-16.66,3.48-.86Z" style="fill: #fff;"/>
    <path d="M388.2,280.39l1.91,17.05-4.08,.46-7.09-9.36-1.79-2.63h-.03s.43,2.94,.43,2.94l1.1,9.87-3.2,.36-1.91-17.05,4.06-.45,7.09,9.33,1.79,2.65h.05s-.43-2.94-.43-2.94l-1.1-9.87,3.2-.36Z" style="fill: #fff;"/>
    <path d="M401.13,297.7c-1.58-.01-2.96-.37-4.14-1.08-1.18-.7-2.1-1.72-2.74-3.04-.65-1.32-.96-2.91-.95-4.77,.02-1.84,.38-3.42,1.08-4.74,.71-1.32,1.69-2.33,2.96-3.03,1.27-.7,2.76-1.04,4.46-1.03,1.85,.02,3.35,.37,4.49,1.06,1.14,.69,2.04,1.76,2.7,3.21l-3.34,1.4c-.27-.92-.74-1.61-1.4-2.05-.66-.45-1.48-.68-2.45-.68s-1.81,.21-2.53,.67c-.71,.45-1.27,1.12-1.66,1.99-.39,.87-.59,1.94-.6,3.21-.01,1.3,.16,2.4,.52,3.29,.36,.9,.89,1.57,1.61,2.02,.71,.45,1.6,.68,2.66,.69,.57,0,1.11-.06,1.6-.19,.5-.13,.93-.34,1.29-.61,.37-.27,.66-.63,.87-1.06,.21-.43,.32-.93,.33-1.5v-.39s-4.49-.04-4.49-.04l.02-2.63,7.59,.06-.08,9.05-2.52-.02-.23-3.75,.62,.45c-.39,1.14-1.07,2.01-2.04,2.62-.97,.61-2.18,.9-3.63,.89Z" style="fill: #fff;"/>
    <path d="M424.45,280.76l-.13,10.84c-.03,2.06-.62,3.67-1.8,4.81-1.18,1.15-2.83,1.71-4.96,1.68-1.53-.02-2.76-.31-3.71-.88-.95-.57-1.6-1.35-1.95-2.36-.35-1.01-.41-2.16-.17-3.46l3.49-.58c-.23,1.52-.14,2.62,.25,3.31,.39,.68,1.12,1.03,2.2,1.04,1.13,.01,1.92-.32,2.37-1.01s.68-1.72,.7-3.09l.12-10.35,3.59,.04Z" style="fill: #fff;"/>
    <path d="M431.45,280.03l2.02,17.04-3.56,.42-2.02-17.04,3.56-.42Z" style="fill: #fff;"/>
    <path d="M454.66,290.43l-3.46,1.36-2.87-3.37-6.12,2.41,.21,4.42-3.41,1.35-.47-18.26,3.99-1.57,12.13,13.66Zm-12.67-2.35l4.62-1.82-5.07-6.05,.45,7.87Z" style="fill: #fff;"/>
    <path d="M461.08,264.78l10,13.95-3.34,2.39-10.76-4.7-2.84-1.42-.02,.02,1.81,2.35,5.79,8.07-2.62,1.88-10-13.95,3.32-2.38,10.74,4.68,2.86,1.44,.04-.03-1.81-2.35-5.79-8.07,2.62-1.88Z" style="fill: #fff;"/>
  </g>
  <g>
    <path d="M442.84,260.13l-14.15-10.91,3.09-2.25,11.09,9.45-5.59-13.47,2.77-2.02,11.17,9.39-5.65-13.42,2.96-2.16,6.09,16.8-3.25,2.38-7.45-6.15-3.04-2.8-.04,.03,1.74,3.75,3.61,8.95-3.34,2.44Z" style="fill: #fff;"/>
    <path d="M449.93,229.69l13.89,10.08-2.11,2.9-13.89-10.08,2.11-2.9Z" style="fill: #fff;"/>
    <path d="M461.51,213.83l13.65,10.4-2.49,3.27-11.66-1.34-3.13-.52-.02,.02,2.42,1.71,7.9,6.02-1.96,2.56-13.65-10.4,2.47-3.25,11.64,1.32,3.15,.54,.03-.04-2.42-1.71-7.9-6.02,1.96-2.56Z" style="fill: #fff;"/>
    <path d="M477.98,200l1.74,2.3-4.58,3.47,8.62,11.37-2.86,2.17-8.62-11.37-4.6,3.49-1.74-2.3,12.04-9.13Z" style="fill: #fff;"/>
    <path d="M490.15,212.97l-6.78-15.76,11.82-5.09,1.14,2.65-8.53,3.67,1.69,3.92,6.71-2.89,1.09,2.53-6.71,2.89,1.73,4.01,8.86-3.81,1.14,2.65-12.16,5.23Z" style="fill: #fff;"/>
    <path d="M508.71,188.73c1.91-.37,3.49-.2,4.76,.51,1.27,.71,2.05,1.84,2.35,3.38,.32,1.65,.02,3.02-.9,4.11-.92,1.09-2.32,1.81-4.21,2.18l-.32,.27-3.62,.7,1.25,6.46-3.47,.67-3.27-16.85,7.43-1.44Zm1.09,7.79c.99-.19,1.68-.53,2.09-1.03,.41-.49,.53-1.16,.37-1.99-.16-.83-.52-1.4-1.09-1.71-.56-.31-1.34-.36-2.32-.17l-3.55,.69,.95,4.9,3.55-.69Zm2.21,.34l7.09,7.34-3.96,.77-5.95-6.5,2.81-1.6Z" style="fill: #fff;"/>
    <path d="M544.34,190.5l-.54,2.83-5.64-1.08-2.69,14.02-3.52-.68,2.69-14.02-5.67-1.09,.54-2.83,14.83,2.85Z" style="fill: #fff;"/>
    <path d="M544.11,208.47l3.38-16.82,12.62,2.53-.57,2.83-9.1-1.83-.84,4.18,7.16,1.44-.54,2.7-7.16-1.44-.86,4.28,9.46,1.9-.57,2.83-12.97-2.6Z" style="fill: #fff;"/>
    <path d="M579.01,209.23l-3.68,.54-2.02-3.94-6.51,.95-.81,4.35-3.63,.53,3.72-17.89,4.25-.62,8.68,16.07Zm-11.79-5.19l4.91-.72-3.55-7.05-1.36,7.77Z" style="fill: #fff;"/>
  </g>
  <g>
    <path d="M480.03,175.7s.3-.17,.88-.46" style="fill: none; stroke: #005850; stroke-miterlimit: 10; stroke-width: .75px;"/>
    <path d="M482.67,174.4c7.51-3.36,30.41-11.42,60.04-1.3" style="fill: none; stroke: #005850; stroke-dasharray: 0 0 1.95 1.95; stroke-miterlimit: 10; stroke-width: .75px;"/>
    <path d="M543.65,173.42c.31,.11,.63,.22,.94,.34" style="fill: none; stroke: #005850; stroke-miterlimit: 10; stroke-width: .75px;"/>
    <polygon points="549.51 175.7 541.47 175.9 544.2 173.69 543.62 170.22 549.51 175.7" style="fill: #005850;"/>
  </g>
  <g>
    <path d="M456.29,309.31s.32-.12,.92-.37" style="fill: none; stroke: #005850; stroke-miterlimit: 10; stroke-width: .75px;"/>
    <path d="M459.06,308.15c8.2-3.64,32.67-16.07,48.14-40.51" style="fill: none; stroke: #005850; stroke-dasharray: 0 0 2.02 2.02; stroke-miterlimit: 10; stroke-width: .75px;"/>
    <path d="M507.75,266.77c.17-.28,.35-.57,.52-.85" style="fill: none; stroke: #005850; stroke-miterlimit: 10; stroke-width: .75px;"/>
    <polygon points="510.85 261.31 509.78 269.28 508.02 266.23 504.51 266.25 510.85 261.31" style="fill: #005850;"/>
  </g>
</svg>