<?xml version="1.0" encoding="UTF-8"?>
<svg id="_文字" data-name="文字" xmlns="http://www.w3.org/2000/svg" width="687" height="620" viewBox="0 0 687 620">
  <path d="M355.89,316.71c-1.55,0-2.97-.07-4.26-.21l3.71-35.81s-.12-.02-.36-.03c.66,.04,16.44,.79,29.39-16.53,1.07-1.42,2.1-2.82,3.11-4.19,9.48-12.8,18.44-24.9,33.21-32.55,15.43-7.99,34.41-9.78,61.55-5.79,49.65,7.3,61.19,1.97,77.92-8.55,36.88-23.17,60.49-50.18,60.57-50.27l14.01,13.33c6.83,6.51,7.09,17.32,.57,24.14-11.96,12.5-31.97,31.53-53.93,44.19-28.03,16.16-50.32,20.71-104.36,12.77-38.51-5.66-44.08,1.85-60.6,24.15-1.04,1.41-2.11,2.85-3.21,4.32-18.4,24.6-42.94,31.01-57.31,31.01Z" style="fill: #c58c5e;"/>
  <path d="M265.6,359.04c-28.26,0-59.52-9.54-63.74-10.87l5.22-16.59c3.03-9.64,12.93-15.41,22.79-13.22,16.13,3.59,35.62,6.25,47.26,3.66,7.06-1.57,12.96-3.69,19.2-5.94,15.79-5.7,33.69-12.15,69.32-8.74,30.99,2.96,37.32-8.38,54.24-38.69,1.02-1.82,2.06-3.69,3.12-5.58l31.37,17.66c-1.05,1.86-2.07,3.68-3.06,5.47-17.85,31.98-34.71,62.18-89.1,56.98-27.58-2.64-39.1,1.52-53.68,6.77-6.7,2.42-14.3,5.16-23.6,7.22-6,1.33-12.58,1.88-19.34,1.88Z" style="fill: #c58c5e;"/>
  <g>
    <path d="M225.3,339.1c-.6,.99-1.34,1.75-2.21,2.3-.88,.54-1.83,.86-2.86,.97s-2.11,.01-3.23-.28c-1.64-.43-2.97-1.15-3.99-2.15-1.02-1-1.68-2.22-2-3.67-.31-1.44-.24-3.05,.23-4.83,.46-1.78,1.19-3.22,2.17-4.32,.98-1.1,2.16-1.84,3.54-2.22,1.38-.37,2.87-.35,4.48,.07,1.14,.3,2.13,.72,2.97,1.28,.84,.55,1.5,1.24,1.98,2.05s.74,1.74,.79,2.77l-3.49,.51c-.02-1.08-.27-1.91-.75-2.49-.48-.58-1.17-.99-2.1-1.23-.91-.24-1.75-.23-2.55,.03-.79,.26-1.49,.76-2.08,1.51-.59,.75-1.05,1.75-1.37,2.99-.32,1.22-.42,2.31-.3,3.25,.12,.95,.46,1.72,1.01,2.34,.56,.61,1.32,1.04,2.29,1.3,.91,.24,1.75,.2,2.54-.11,.79-.31,1.45-.93,1.98-1.85l2.94,1.79Z" style="fill: #fff;"/>
    <path d="M234.07,328.21l-3.21,16.86-3.52-.67,3.21-16.86,3.52,.67Zm7.95,8.69l-.54,2.83-11.03-2.1,.54-2.83,11.03,2.1Zm3-6.6l-3.21,16.86-3.52-.67,3.21-16.86,3.52,.67Z" style="fill: #fff;"/>
    <path d="M246.71,347.86l1.69-17.08,12.81,1.27-.28,2.87-9.24-.92-.42,4.24,7.27,.72-.27,2.74-7.27-.72-.43,4.35,9.6,.95-.29,2.87-13.17-1.31Z" style="fill: #fff;"/>
    <path d="M264.27,349.32l-.84-17.14,12.85-.63,.14,2.88-9.27,.45,.21,4.26,7.3-.36,.13,2.75-7.3,.36,.21,4.36,9.63-.47,.14,2.88-13.22,.65Z" style="fill: #fff;"/>
    <path d="M283.87,328.96c1.5-.44,2.89-.56,4.17-.37,1.28,.19,2.47,.67,3.56,1.46l-1.28,2.78c-.93-.67-1.86-1.09-2.79-1.26-.93-.17-1.92-.1-2.99,.21-.7,.2-1.25,.46-1.66,.78s-.67,.65-.79,1.01c-.12,.36-.13,.72-.02,1.09,.13,.45,.42,.78,.85,.98,.44,.21,1.11,.29,2.02,.24l3.27-.19c1.74-.11,3.06,.1,3.98,.62,.92,.52,1.54,1.35,1.88,2.5,.31,1.08,.3,2.09-.04,3.03s-.96,1.76-1.86,2.46c-.9,.7-2,1.25-3.32,1.63-1.15,.33-2.24,.5-3.28,.51-1.04,0-2-.13-2.89-.39-.89-.26-1.68-.64-2.36-1.13l1.27-2.89c.54,.42,1.15,.76,1.84,1.01,.69,.25,1.43,.39,2.22,.42s1.59-.07,2.39-.3c.68-.2,1.24-.45,1.67-.74,.43-.3,.72-.62,.88-.99,.16-.36,.17-.75,.05-1.17-.13-.43-.38-.76-.76-.98-.38-.22-.99-.3-1.82-.24l-3.56,.22c-1.03,.05-1.95-.02-2.75-.19s-1.46-.5-1.99-.99c-.53-.49-.91-1.14-1.15-1.95-.29-.98-.28-1.94,.03-2.88,.3-.94,.89-1.78,1.77-2.53,.87-.75,2.02-1.33,3.43-1.74Z" style="fill: #fff;"/>
    <path d="M305.55,321.73l-2.09,12.16,2.17,6.04-3.38,1.21-2.17-6.04-9.36-8.05,3.6-1.29,4.33,3.89,2.14,2.1,.33-2.99,.86-5.75,3.57-1.29Z" style="fill: #fff;"/>
    <path d="M332.4,328.17c-.12,1.15-.46,2.16-1.02,3.02-.56,.86-1.28,1.57-2.17,2.1-.89,.54-1.9,.92-3.04,1.13-1.67,.32-3.18,.24-4.53-.23-1.35-.47-2.47-1.29-3.38-2.46-.9-1.17-1.52-2.66-1.86-4.46-.34-1.81-.31-3.42,.11-4.84,.41-1.42,1.16-2.59,2.25-3.52s2.45-1.55,4.08-1.86c1.16-.22,2.24-.26,3.23-.12,1,.14,1.88,.47,2.66,1,.78,.53,1.41,1.25,1.9,2.17l-2.94,1.96c-.48-.97-1.06-1.61-1.74-1.93-.68-.32-1.49-.39-2.42-.22-.92,.17-1.68,.55-2.29,1.12-.61,.57-1.02,1.33-1.23,2.26-.21,.93-.2,2.03,.04,3.29,.24,1.24,.61,2.27,1.12,3.07,.51,.8,1.15,1.36,1.92,1.67,.76,.31,1.64,.38,2.63,.19,.92-.17,1.67-.57,2.25-1.19,.58-.62,.91-1.46,.99-2.52l3.43,.36Z" style="fill: #fff;"/>
    <path d="M338.71,329.78l9.04-.39,.13,2.88-12.62,.55-.75-17.14,3.58-.16,.62,14.26Z" style="fill: #fff;"/>
    <path d="M357.77,315.37c1.7,.1,3.14,.55,4.32,1.33,1.19,.78,2.07,1.85,2.66,3.21,.59,1.35,.82,2.95,.71,4.78-.11,1.83-.54,3.39-1.28,4.66-.75,1.27-1.75,2.23-3.03,2.86-1.27,.64-2.75,.9-4.45,.8-1.7-.1-3.14-.55-4.33-1.33-1.19-.78-2.08-1.85-2.67-3.21-.59-1.36-.83-2.95-.71-4.78,.11-1.83,.54-3.39,1.29-4.66,.75-1.27,1.76-2.23,3.04-2.86s2.77-.9,4.46-.8Zm-.18,2.93c-.95-.06-1.78,.12-2.49,.53-.71,.41-1.27,1.04-1.68,1.9-.41,.86-.65,1.92-.73,3.19-.08,1.26,.04,2.35,.34,3.25,.3,.9,.78,1.6,1.44,2.09,.66,.49,1.46,.77,2.41,.82s1.78-.12,2.48-.53c.7-.41,1.26-1.04,1.67-1.9,.41-.86,.65-1.92,.73-3.19,.08-1.26-.04-2.35-.34-3.25-.3-.9-.78-1.6-1.42-2.09-.65-.49-1.45-.76-2.4-.82Z" style="fill: #fff;"/>
    <path d="M383.02,316.51l.22,10.4c.05,2.34-.54,4.11-1.76,5.3-1.22,1.2-3.03,1.82-5.42,1.87s-4.22-.5-5.5-1.64c-1.27-1.14-1.93-2.88-1.98-5.22l-.22-10.4,3.59-.08,.22,10.24c.03,1.44,.36,2.5,.99,3.18s1.58,1.01,2.84,.98c1.26-.03,2.19-.39,2.79-1.1s.87-1.78,.84-3.22l-.22-10.24,3.61-.08Z" style="fill: #fff;"/>
    <path d="M390.73,314c2.48-1.04,4.68-1.17,6.61-.38,1.93,.79,3.44,2.46,4.51,5,1.06,2.52,1.21,4.76,.43,6.7-.78,1.95-2.41,3.44-4.88,4.48l-6.11,2.58-6.67-15.81,6.11-2.58Zm5.39,13.25c1.5-.63,2.44-1.56,2.82-2.78,.38-1.22,.21-2.69-.51-4.4-.72-1.71-1.65-2.86-2.79-3.44-1.14-.58-2.46-.56-3.96,.08l-2.64,1.11,4.44,10.54,2.64-1.11Z" style="fill: #fff;"/>
    <path d="M407.48,298.65c.97-1.39,2.1-2.39,3.39-3s2.66-.8,4.12-.6c1.46,.21,2.95,.83,4.46,1.88,1.51,1.05,2.61,2.23,3.31,3.53,.7,1.3,.99,2.66,.87,4.08-.12,1.42-.67,2.82-1.64,4.21-.97,1.39-2.1,2.4-3.39,3.01-1.29,.61-2.67,.81-4.13,.61-1.46-.21-2.95-.83-4.45-1.88-1.51-1.05-2.61-2.23-3.31-3.53-.7-1.3-.99-2.66-.86-4.09,.12-1.42,.67-2.83,1.64-4.22Zm2.41,1.68c-.55,.78-.83,1.58-.85,2.4s.23,1.63,.75,2.42c.52,.8,1.3,1.56,2.34,2.28s2.02,1.19,2.95,1.41c.93,.21,1.77,.17,2.54-.13,.76-.3,1.41-.85,1.96-1.63,.54-.78,.83-1.58,.84-2.39,.02-.81-.24-1.62-.76-2.41s-1.3-1.56-2.34-2.28c-1.04-.72-2.02-1.19-2.95-1.41-.93-.21-1.77-.17-2.53,.12-.76,.3-1.41,.84-1.95,1.62Z" style="fill: #fff;"/>
    <path d="M420.76,276.94l14.94,8.45-2.02,3.58-11.74,.26-3.17-.09v.02s2.62,1.37,2.62,1.37l8.65,4.89-1.59,2.81-14.94-8.45,2.01-3.55,11.71-.28,3.2,.1,.03-.04-2.63-1.37-8.65-4.89,1.59-2.81Z" style="fill: #fff;"/>
  </g>
  <g>
    <path d="M378.35,300.72c-.03,1.16-.3,2.19-.79,3.09-.5,.9-1.17,1.66-2.01,2.26-.84,.6-1.83,1.05-2.95,1.35-1.64,.44-3.15,.47-4.53,.1s-2.56-1.1-3.55-2.2c-.98-1.1-1.71-2.54-2.19-4.31-.47-1.78-.56-3.39-.25-4.83s.97-2.67,1.98-3.68c1.01-1.01,2.33-1.72,3.93-2.15,1.14-.3,2.21-.42,3.21-.36,1,.07,1.91,.33,2.73,.81,.82,.47,1.5,1.15,2.06,2.02l-2.79,2.17c-.55-.93-1.18-1.53-1.88-1.8-.7-.27-1.51-.28-2.43-.04-.9,.24-1.64,.67-2.2,1.29s-.92,1.4-1.06,2.34c-.14,.94-.05,2.04,.28,3.28,.33,1.22,.77,2.22,1.34,2.98,.57,.76,1.25,1.27,2.04,1.53,.79,.26,1.66,.26,2.64,0,.9-.24,1.62-.69,2.15-1.35s.8-1.52,.81-2.58l3.44,.11Z" style="fill: #fff;"/>
    <path d="M382.61,284.06c1.43-.91,2.86-1.39,4.28-1.45s2.76,.29,4.03,1.04c1.27,.76,2.4,1.91,3.38,3.46s1.55,3.06,1.69,4.53c.14,1.47-.12,2.83-.78,4.09-.66,1.26-1.71,2.34-3.14,3.25-1.44,.91-2.87,1.4-4.29,1.46-1.43,.06-2.78-.28-4.04-1.04-1.27-.76-2.4-1.91-3.38-3.46-.98-1.55-1.55-3.06-1.69-4.53-.14-1.47,.12-2.84,.79-4.1s1.72-2.35,3.15-3.26Zm1.57,2.48c-.81,.51-1.38,1.14-1.71,1.89-.34,.75-.42,1.59-.25,2.53,.17,.94,.6,1.94,1.28,3.01,.68,1.07,1.4,1.88,2.18,2.44,.77,.56,1.57,.84,2.39,.86,.82,.01,1.63-.23,2.44-.74,.8-.51,1.37-1.14,1.7-1.88,.33-.74,.41-1.58,.24-2.52-.17-.94-.6-1.94-1.28-3.01-.68-1.07-1.4-1.88-2.18-2.44-.77-.56-1.57-.84-2.38-.86-.81-.02-1.62,.23-2.43,.74Z" style="fill: #fff;"/>
    <path d="M408.2,272.18c.82,.82,1.39,1.72,1.7,2.7,.32,.98,.4,1.98,.26,3.01-.14,1.03-.49,2.05-1.04,3.07-.81,1.49-1.82,2.62-3.04,3.37-1.22,.75-2.56,1.11-4.04,1.06-1.48-.04-3.02-.5-4.64-1.38-1.61-.88-2.84-1.92-3.68-3.14-.84-1.21-1.28-2.54-1.31-3.96-.03-1.43,.35-2.87,1.14-4.34,.56-1.04,1.21-1.9,1.95-2.58,.74-.68,1.56-1.16,2.46-1.43,.9-.27,1.87-.3,2.88-.11l-.34,3.51c-1.05-.24-1.92-.19-2.6,.13-.68,.32-1.24,.9-1.7,1.74-.45,.82-.64,1.65-.58,2.48,.06,.83,.39,1.62,.97,2.38,.59,.75,1.45,1.43,2.57,2.05,1.11,.6,2.14,.96,3.09,1.07,.95,.11,1.78-.03,2.51-.43,.73-.39,1.33-1.03,1.81-1.92,.45-.82,.61-1.65,.5-2.5s-.56-1.63-1.32-2.36l2.44-2.43Z" style="fill: #fff;"/>
    <path d="M402.73,255.88c.92-1.43,2.01-2.47,3.27-3.12,1.26-.65,2.63-.9,4.1-.75,1.47,.15,2.98,.72,4.52,1.72s2.69,2.13,3.44,3.4,1.09,2.62,1.02,4.04c-.07,1.42-.56,2.84-1.48,4.27-.92,1.43-2.01,2.47-3.28,3.13-1.27,.66-2.64,.91-4.11,.76-1.47-.15-2.98-.72-4.52-1.72-1.55-.99-2.69-2.13-3.44-3.4-.75-1.27-1.08-2.62-1.01-4.05s.57-2.85,1.49-4.28Zm2.47,1.59c-.52,.8-.77,1.61-.76,2.43,0,.82,.29,1.62,.84,2.4,.55,.78,1.36,1.51,2.42,2.19,1.06,.68,2.06,1.12,3,1.29,.94,.18,1.78,.1,2.53-.23,.75-.33,1.38-.9,1.9-1.7,.52-.8,.77-1.61,.75-2.42-.01-.81-.3-1.61-.85-2.38-.55-.78-1.36-1.51-2.42-2.19-1.06-.68-2.06-1.12-3-1.29-.94-.18-1.78-.11-2.52,.22s-1.38,.89-1.89,1.69Z" style="fill: #fff;"/>
    <path d="M434.66,248.1l-2.97,2.24-3.67-2.48-5.25,3.97,1.38,4.2-2.92,2.21-5.35-17.47,3.42-2.59,15.35,9.91Zm-12.83,1.13l3.96-3-6.51-4.47,2.55,7.46Z" style="fill: #fff;"/>
    <path d="M456.48,240.82c-.23,1.13-.66,2.11-1.3,2.91-.64,.81-1.43,1.44-2.36,1.89-.93,.45-1.98,.73-3.13,.84-1.69,.16-3.19-.06-4.49-.66-1.3-.59-2.34-1.52-3.13-2.77-.79-1.25-1.26-2.79-1.43-4.62-.17-1.83,.02-3.43,.56-4.8,.54-1.37,1.4-2.47,2.57-3.29s2.58-1.31,4.24-1.46c1.17-.11,2.25-.05,3.23,.18,.98,.23,1.83,.65,2.56,1.25,.73,.6,1.29,1.38,1.69,2.34l-3.11,1.67c-.39-1.01-.91-1.7-1.55-2.09-.65-.38-1.44-.53-2.39-.45-.93,.09-1.73,.39-2.38,.9-.66,.51-1.14,1.22-1.44,2.13-.3,.91-.39,2-.27,3.28,.12,1.26,.39,2.31,.83,3.16,.43,.85,1.02,1.46,1.75,1.85,.73,.39,1.6,.53,2.6,.44,.93-.09,1.72-.41,2.35-.97s1.04-1.37,1.23-2.41l3.38,.68Z" style="fill: #fff;"/>
    <path d="M464.37,228.8l-1.58,17.09-3.57-.33,1.58-17.09,3.57,.33Zm8.75,7.88l-.27,2.87-11.18-1.03,.27-2.87,11.18,1.03Zm2.36-6.86l-1.58,17.09-3.57-.33,1.58-17.09,3.57,.33Z" style="fill: #fff;"/>
    <path d="M484.27,231.42l-2.74,16.94-3.54-.57,2.74-16.94,3.54,.57Z" style="fill: #fff;"/>
    <path d="M495.57,233.08c1.31,.17,2.4,.53,3.27,1.09,.87,.56,1.51,1.28,1.91,2.16,.4,.88,.53,1.9,.38,3.05-.15,1.15-.53,2.1-1.14,2.86-.61,.75-1.41,1.29-2.39,1.61-.98,.32-2.13,.4-3.44,.23l-3.58-.46-.77,6.04-3.56-.46,2.18-17.02,7.14,.91Zm-1.59,8.11c1.07,.14,1.89,.01,2.49-.38,.59-.39,.94-1.02,1.05-1.9,.11-.89-.07-1.6-.54-2.11-.48-.52-1.25-.84-2.31-.98l-3.04-.39-.69,5.36,3.04,.39Z" style="fill: #fff;"/>
    <path d="M518.06,234.14c1.56-.03,2.93,.21,4.12,.72s2.21,1.29,3.06,2.33l-1.96,2.35c-.73-.89-1.52-1.53-2.37-1.94s-1.83-.6-2.94-.58c-.73,.01-1.33,.12-1.8,.32-.47,.2-.81,.46-1.02,.77-.21,.32-.31,.67-.3,1.05,0,.47,.2,.86,.57,1.17,.37,.31,1,.57,1.89,.76l3.21,.67c1.71,.35,2.93,.89,3.69,1.63,.75,.74,1.14,1.71,1.16,2.9,.02,1.13-.25,2.1-.83,2.92-.57,.82-1.38,1.45-2.43,1.89s-2.26,.68-3.63,.71c-1.2,.02-2.29-.1-3.3-.36-1-.27-1.9-.64-2.69-1.13-.79-.49-1.45-1.05-1.98-1.7l1.98-2.46c.41,.55,.91,1.03,1.51,1.45,.6,.42,1.28,.75,2.04,.99,.76,.24,1.55,.35,2.39,.33,.71-.01,1.31-.11,1.8-.28,.49-.17,.86-.42,1.1-.72,.25-.31,.36-.68,.36-1.11,0-.45-.17-.83-.48-1.15-.31-.31-.87-.55-1.69-.71l-3.5-.71c-1.01-.22-1.88-.52-2.6-.9-.73-.38-1.28-.87-1.67-1.48-.39-.61-.59-1.34-.6-2.19-.02-1.02,.24-1.95,.78-2.77,.54-.83,1.33-1.49,2.37-1.98,1.04-.5,2.29-.76,3.77-.79Z" style="fill: #fff;"/>
    <path d="M546.02,230.87l3.06,16.89-3.17,.57-1.59-8.8-.74-4.97h-.05s-2.2,14.6-2.2,14.6l-2.89,.52-7.14-12.9h-.05s1.07,4.91,1.07,4.91l1.59,8.8-3.2,.58-3.06-16.89,5.12-.93,4.71,8.66,1.76,3.62h.05s.42-4,.42-4l1.35-9.78,4.96-.9Z" style="fill: #fff;"/>
    <path d="M556.18,226.99c1.59-.59,3.09-.76,4.49-.52,1.4,.24,2.64,.86,3.72,1.87,1.08,1.01,1.94,2.37,2.58,4.09,.64,1.72,.87,3.32,.7,4.79-.17,1.47-.71,2.75-1.62,3.84s-2.16,1.93-3.75,2.52-3.1,.76-4.5,.53c-1.41-.24-2.65-.86-3.74-1.86s-1.94-2.37-2.58-4.09c-.64-1.72-.87-3.32-.7-4.79,.17-1.47,.71-2.75,1.63-3.84,.92-1.1,2.17-1.94,3.77-2.53Zm1.02,2.76c-.89,.33-1.58,.83-2.07,1.48-.49,.66-.74,1.47-.77,2.42s.18,2.02,.62,3.21c.44,1.19,.98,2.13,1.62,2.84,.64,.71,1.36,1.15,2.16,1.34s1.64,.11,2.54-.22c.89-.33,1.58-.82,2.06-1.48,.48-.66,.73-1.46,.76-2.41s-.18-2.02-.62-3.21c-.44-1.19-.98-2.13-1.62-2.84-.64-.71-1.35-1.15-2.14-1.34-.79-.19-1.63-.12-2.53,.21Z" style="fill: #fff;"/>
    <path d="M572.8,219.36c1.49-.82,2.94-1.22,4.36-1.19,1.42,.03,2.74,.45,3.96,1.28,1.22,.83,2.28,2.05,3.17,3.66,.89,1.61,1.36,3.15,1.42,4.62,.05,1.48-.29,2.82-1.02,4.04-.73,1.22-1.84,2.24-3.33,3.06-1.49,.82-2.94,1.22-4.37,1.2-1.43-.02-2.75-.45-3.98-1.28-1.22-.83-2.28-2.05-3.17-3.66-.89-1.61-1.36-3.15-1.42-4.62s.29-2.82,1.03-4.05c.74-1.22,1.85-2.24,3.34-3.07Zm1.42,2.57c-.83,.46-1.44,1.06-1.82,1.78s-.51,1.56-.4,2.51,.48,1.97,1.09,3.08c.61,1.11,1.29,1.96,2.03,2.56,.74,.6,1.52,.93,2.33,1,.82,.06,1.64-.14,2.48-.6,.83-.46,1.44-1.05,1.81-1.77,.37-.72,.5-1.56,.38-2.5-.12-.95-.48-1.97-1.09-3.08-.61-1.11-1.29-1.96-2.03-2.56s-1.51-.94-2.32-1c-.81-.07-1.63,.13-2.47,.59Z" style="fill: #fff;"/>
    <path d="M592.91,206.27l1.7,2.33-4.64,3.38,8.41,11.53-2.9,2.11-8.41-11.53-4.66,3.4-1.7-2.33,12.21-8.9Z" style="fill: #fff;"/>
    <path d="M597.27,202.37l11.65,12.6-2.63,2.44-11.65-12.6,2.64-2.44Zm11.71-1.23l1.96,2.12-8.25,7.62-1.96-2.12,8.25-7.62Zm-3.52-6.34l11.65,12.6-2.63,2.44-11.65-12.6,2.63-2.44Z" style="fill: #fff;"/>
    <path d="M610.55,189.17l12.62,11.62-2.43,2.64-12.62-11.63,2.43-2.64Z" style="fill: #fff;"/>
    <path d="M626.67,196.94l-13.38-10.75,8.06-10.03,2.25,1.81-5.81,7.24,3.32,2.67,4.58-5.7,2.15,1.73-4.58,5.7,3.41,2.74,6.04-7.52,2.25,1.81-8.29,10.32Z" style="fill: #fff;"/>
  </g>
  <g>
    <path d="M428.95,213.06s.3-.17,.88-.46" style="fill: none; stroke: #005850; stroke-miterlimit: 10; stroke-width: .75px;"/>
    <path d="M431.59,211.76c7.51-3.36,30.41-11.42,60.04-1.3" style="fill: none; stroke: #005850; stroke-dasharray: 0 0 1.95 1.95; stroke-miterlimit: 10; stroke-width: .75px;"/>
    <path d="M492.57,210.78c.31,.11,.63,.22,.94,.34" style="fill: none; stroke: #005850; stroke-miterlimit: 10; stroke-width: .75px;"/>
    <polygon points="498.43 213.06 490.39 213.26 493.12 211.04 492.54 207.57 498.43 213.06" style="fill: #005850;"/>
  </g>
  <g>
    <path d="M401.56,353.85s.34-.04,.98-.14" style="fill: none; stroke: #005850; stroke-miterlimit: 10; stroke-width: .75px;"/>
    <path d="M404.49,353.33c8.82-1.93,35.44-10.46,51.42-45.04" style="fill: none; stroke: #005850; stroke-dasharray: 0 0 1.99 1.99; stroke-miterlimit: 10; stroke-width: .75px;"/>
    <path d="M456.33,307.37c.14-.3,.27-.61,.41-.91" style="fill: none; stroke: #005850; stroke-miterlimit: 10; stroke-width: .75px;"/>
    <polygon points="458.75 301.57 458.68 309.61 456.56 306.81 453.07 307.26 458.75 301.57" style="fill: #005850;"/>
  </g>
</svg>