<?xml version="1.0" encoding="UTF-8"?>
<svg id="_文字" data-name="文字" xmlns="http://www.w3.org/2000/svg" width="725" height="634" viewBox="0 0 725 634">
  <g>
    <path d="M400.13,218.26s.29-.18,.85-.51" style="fill: none; stroke: #005850; stroke-miterlimit: 10; stroke-width: .75px;"/>
    <path d="M402.7,216.77c8.16-4.53,34.65-17.75,63.5-16.45" style="fill: none; stroke: #005850; stroke-dasharray: 0 0 1.98 1.98; stroke-miterlimit: 10; stroke-width: .75px;"/>
    <path d="M467.21,200.37c.33,.02,.66,.04,1,.06" style="fill: none; stroke: #005850; stroke-miterlimit: 10; stroke-width: .75px;"/>
    <polygon points="473.46 200.96 465.77 203.32 467.8 200.45 466.32 197.26 473.46 200.96" style="fill: #005850;"/>
  </g>
  <g>
    <path d="M645.97,251.58s.29-.19,.82-.57" style="fill: none; stroke: #005850; stroke-miterlimit: 10; stroke-width: .75px;"/>
    <path d="M648.36,249.86c8.25-6.21,34.98-28.65,33.6-57.73" style="fill: none; stroke: #005850; stroke-dasharray: 0 0 1.95 1.95; stroke-miterlimit: 10; stroke-width: .75px;"/>
    <path d="M681.9,191.15c-.02-.33-.05-.66-.08-1" style="fill: none; stroke: #005850; stroke-miterlimit: 10; stroke-width: .75px;"/>
    <polygon points="681.04 184.93 685.07 191.89 681.81 190.55 679.04 192.72 681.04 184.93" style="fill: #005850;"/>
  </g>
  <path d="M234.22,308.79l3.19-22.02c1.48-10.2,10.42-17.66,20.72-17.22,20.92,.89,55.88,.29,82.08-10.74,8.72-3.67,16.45-7.76,24.63-12.09,33.19-17.56,67.51-35.71,161.9-25.53l-4.4,40.76c-81.92-8.84-108.06,4.99-138.34,21.01-8.61,4.55-17.51,9.26-27.89,13.63-50.43,21.23-119.38,12.55-121.89,12.18Z" style="fill: #ba0102;"/>
  <path d="M382.95,322.95l-20.69-35.39c2.4-1.41,59.9-34.42,147.94-33.38,97.11,1.14,116.82-93.97,117.61-98.02l22.85,4.34c9.74,1.85,15.64,11.87,12.48,21.27-4.23,12.58-11.61,30.21-23.77,47.76-21.05,30.39-60.64,66.45-129.65,65.64-76.8-.9-126.28,27.49-126.77,27.78Z" style="fill: #ba0102;"/>
  <g>
    <path d="M386.51,288.61l4.48,9.87c.85,1.88,.99,3.59,.41,5.12-.58,1.54-1.84,2.75-3.78,3.63-1.39,.63-2.63,.89-3.73,.78-1.1-.11-2.02-.55-2.77-1.31-.75-.76-1.29-1.79-1.62-3.06l2.91-2.01c.44,1.47,.98,2.44,1.63,2.89,.64,.45,1.45,.45,2.43,0,1.03-.47,1.6-1.11,1.71-1.92,.12-.81-.11-1.84-.67-3.09l-4.28-9.42,3.27-1.48Z" style="fill: #fff;"/>
    <path d="M395.9,284.91l6.2,16-3.35,1.3-6.2-16,3.35-1.3Z" style="fill: #fff;"/>
    <path d="M416.2,277.95l5.31,16.32-3.91,1.27-8.83-7.73-2.28-2.21h-.02s1.02,2.79,1.02,2.79l3.07,9.44-3.07,1-5.31-16.32,3.88-1.26,8.83,7.71,2.29,2.24,.05-.02-1.02-2.79-3.07-9.45,3.07-1Z" style="fill: #fff;"/>
    <path d="M440.63,289.26l-4.13,1.05-5.13-4.97-2.08,6.81-3.98,1.01,3.58-9.85-7.41-6.89,4.08-1.04,4.78,4.74,1.98-6.46,3.78-.96-3.27,9.47,7.81,7.08Z" style="fill: #fff;"/>
    <path d="M455.34,268.9l1.94,10.22c.44,2.3,.15,4.14-.85,5.52-1.01,1.38-2.69,2.3-5.04,2.75-2.35,.45-4.25,.21-5.69-.7-1.44-.92-2.39-2.52-2.82-4.82l-1.94-10.22,3.52-.67,1.92,10.06c.27,1.41,.77,2.4,1.5,2.97,.73,.57,1.72,.73,2.97,.49,1.24-.24,2.1-.75,2.56-1.55,.47-.79,.56-1.9,.3-3.31l-1.92-10.06,3.55-.68Z" style="fill: #fff;"/>
    <path d="M478.08,283.11l-3.69,.48-1.96-3.97-6.52,.84-.88,4.33-3.64,.47,4.01-17.82,4.25-.55,8.42,16.21Zm-11.71-5.38l4.92-.64-3.44-7.11-1.49,7.74Z" style="fill: #fff;"/>
    <path d="M495.46,264.66l1.15,17.12-4.1,.28-6.67-9.66-1.67-2.7h-.03s.3,2.95,.3,2.95l.67,9.91-3.22,.22-1.15-17.12,4.07-.27,6.67,9.64,1.67,2.73h.05s-.3-2.95-.3-2.95l-.67-9.91,3.22-.22Z" style="fill: #fff;"/>
    <path d="M519.2,264.14c1.7-.03,3.17,.3,4.41,.99,1.24,.69,2.21,1.69,2.9,2.99,.69,1.31,1.05,2.88,1.08,4.71,.03,1.84-.28,3.42-.92,4.75s-1.58,2.36-2.8,3.09c-1.22,.73-2.68,1.11-4.38,1.14s-3.17-.3-4.42-.99c-1.25-.69-2.22-1.69-2.91-2.99-.69-1.31-1.05-2.88-1.08-4.71-.03-1.84,.28-3.42,.92-4.75,.65-1.33,1.58-2.36,2.81-3.09,1.23-.73,2.69-1.11,4.39-1.14Zm.05,2.94c-.95,.02-1.77,.25-2.45,.72-.68,.46-1.19,1.14-1.53,2.03-.34,.89-.5,1.97-.48,3.23,.02,1.26,.22,2.34,.59,3.21,.37,.88,.9,1.54,1.59,1.98,.69,.44,1.51,.65,2.47,.64,.95-.02,1.76-.25,2.43-.72,.67-.46,1.17-1.14,1.51-2.03,.34-.89,.5-1.97,.48-3.23-.02-1.27-.22-2.34-.59-3.22s-.9-1.54-1.58-1.97c-.68-.44-1.5-.65-2.45-.64Z" style="fill: #fff;"/>
    <path d="M539.01,262.4c1.68-.28,3.18-.16,4.51,.34,1.33,.5,2.43,1.35,3.3,2.54,.87,1.19,1.46,2.69,1.76,4.51,.3,1.81,.23,3.42-.22,4.83-.44,1.41-1.22,2.56-2.31,3.46-1.1,.9-2.49,1.49-4.16,1.77-1.68,.28-3.18,.17-4.52-.33-1.34-.5-2.44-1.34-3.32-2.54-.87-1.19-1.46-2.69-1.76-4.51-.3-1.81-.23-3.42,.22-4.83,.44-1.41,1.22-2.56,2.33-3.47,1.11-.9,2.5-1.49,4.17-1.77Zm.48,2.9c-.94,.16-1.71,.51-2.31,1.07-.6,.56-1.01,1.3-1.21,2.23-.21,.93-.21,2.02,0,3.27,.21,1.25,.56,2.28,1.05,3.09,.49,.81,1.12,1.39,1.86,1.72,.75,.33,1.59,.42,2.53,.27,.94-.16,1.71-.51,2.3-1.06,.59-.55,.99-1.3,1.2-2.23,.21-.93,.21-2.02,0-3.27s-.56-2.28-1.05-3.09c-.49-.81-1.11-1.39-1.85-1.72-.74-.33-1.58-.42-2.52-.27Z" style="fill: #fff;"/>
    <path d="M559.16,272.55l8.59-2.84,.91,2.74-12,3.96-5.38-16.29,3.41-1.12,4.48,13.55Z" style="fill: #fff;"/>
    <path d="M572.51,251.34c1.5-.79,2.97-1.16,4.39-1.1,1.42,.06,2.73,.51,3.93,1.37,1.2,.86,2.23,2.1,3.09,3.72,.85,1.63,1.29,3.18,1.31,4.66,.02,1.48-.35,2.82-1.11,4.02-.76,1.2-1.89,2.2-3.4,2.99-1.5,.79-2.97,1.16-4.4,1.1-1.43-.05-2.74-.51-3.95-1.36-1.2-.86-2.23-2.1-3.09-3.73-.85-1.63-1.29-3.18-1.31-4.66-.02-1.48,.35-2.82,1.12-4.02,.77-1.21,1.9-2.2,3.41-2.99Zm1.37,2.6c-.84,.44-1.46,1.02-1.86,1.74-.4,.72-.55,1.55-.45,2.5,.1,.95,.44,1.98,1.03,3.1s1.24,1.99,1.97,2.61c.73,.62,1.5,.97,2.31,1.05,.82,.08,1.65-.1,2.49-.54s1.46-1.02,1.85-1.73c.39-.71,.54-1.54,.44-2.49-.1-.95-.44-1.98-1.03-3.1-.59-1.12-1.24-1.99-1.97-2.61-.73-.62-1.49-.97-2.3-1.05-.81-.08-1.63,.09-2.48,.54Z" style="fill: #fff;"/>
    <path d="M594.88,236.27l10.66,13.45-3.22,2.55-10.97-4.18-2.91-1.28-.02,.02,1.92,2.26,6.17,7.78-2.53,2-10.66-13.45,3.2-2.54,10.96,4.16,2.92,1.3,.04-.03-1.92-2.26-6.17-7.78,2.53-2Z" style="fill: #fff;"/>
    <path d="M616.18,239.15c-1.05,1.18-2.23,1.98-3.54,2.4-1.31,.42-2.67,.44-4.09,.05-1.42-.39-2.82-1.2-4.21-2.43-1.37-1.22-2.32-2.54-2.84-3.94-.53-1.4-.63-2.81-.32-4.23,.31-1.42,1.04-2.76,2.17-4.02,1.24-1.38,2.49-2.27,3.76-2.67s2.67-.37,4.19,.09l-1.15,3.43c-.87-.41-1.69-.51-2.47-.3-.77,.2-1.49,.67-2.13,1.39-.65,.72-1.04,1.5-1.17,2.34s0,1.69,.4,2.55c.4,.87,1.07,1.72,2.01,2.57,.97,.87,1.91,1.46,2.82,1.79,.91,.32,1.77,.36,2.58,.12,.81-.24,1.57-.76,2.27-1.54,.38-.43,.68-.87,.91-1.33,.23-.46,.36-.92,.39-1.38s-.04-.91-.22-1.35c-.18-.44-.49-.86-.92-1.24l-.29-.26-3,3.35-1.96-1.75,5.06-5.66,6.75,6.03-1.68,1.88-2.96-2.3,.75-.17c.6,1.05,.81,2.13,.62,3.26-.18,1.13-.76,2.23-1.73,3.32Z" style="fill: #fff;"/>
    <path d="M622.84,199.08l2.49,1.45-2.89,4.96,12.33,7.18-1.81,3.1-12.33-7.18-2.91,4.99-2.49-1.45,7.6-13.05Z" style="fill: #fff;"/>
    <path d="M640.19,202.53l-15.7-6.92,5.19-11.78,2.64,1.16-3.74,8.5,3.9,1.72,2.94-6.69,2.52,1.11-2.94,6.69,4,1.76,3.89-8.83,2.64,1.16-5.33,12.11Z" style="fill: #fff;"/>
    <path d="M652.04,170.5l-1.1,3.55-4.42,.12-1.95,6.28,3.57,2.61-1.09,3.5-14.53-11.07,1.27-4.1,18.25-.89Zm-9.77,8.4l1.47-4.74-7.89,.16,6.42,4.58Z" style="fill: #fff;"/>
  </g>
  <g>
    <path d="M258.85,297.85c-1.57-.12-2.93-.57-4.06-1.35-1.13-.78-1.98-1.85-2.54-3.21-.56-1.36-.77-2.97-.63-4.82,.14-1.83,.6-3.38,1.39-4.65,.79-1.27,1.84-2.21,3.16-2.83,1.31-.61,2.82-.86,4.51-.73,1.85,.14,3.32,.59,4.41,1.36,1.09,.77,1.92,1.89,2.48,3.38l-3.43,1.18c-.21-.94-.63-1.65-1.26-2.14-.63-.49-1.43-.77-2.4-.84-.97-.07-1.82,.09-2.57,.5-.74,.4-1.34,1.03-1.78,1.87-.45,.84-.72,1.9-.81,3.16-.1,1.3,0,2.4,.3,3.32,.3,.92,.79,1.62,1.47,2.12,.68,.49,1.55,.78,2.61,.86,.57,.04,1.11,.01,1.61-.09,.5-.1,.95-.28,1.33-.53,.38-.25,.7-.58,.94-1,.24-.42,.38-.91,.42-1.48l.03-.39-4.49-.34,.2-2.62,7.57,.57-.68,9.02-2.52-.19,.02-3.75,.59,.49c-.47,1.11-1.2,1.94-2.21,2.48-1.01,.54-2.23,.76-3.69,.65Z" style="fill: #fff;"/>
    <path d="M280.53,281.12c1.94-.01,3.47,.44,4.59,1.37,1.12,.93,1.68,2.18,1.69,3.76,.01,1.68-.53,2.97-1.64,3.87-1.1,.9-2.62,1.36-4.54,1.37l-.36,.21-3.69,.03,.05,6.58-3.54,.03-.13-17.16,7.57-.06Zm-.36,7.86c1,0,1.75-.22,2.24-.63,.49-.41,.73-1.04,.73-1.89,0-.85-.26-1.48-.76-1.88-.5-.4-1.25-.6-2.25-.59l-3.61,.03,.04,4.99,3.61-.03Zm2.11,.74l5.63,8.51-4.03,.03-4.66-7.48,3.06-1.06Z" style="fill: #fff;"/>
    <path d="M308.09,296.57l-3.7,.33-1.8-4.04-6.55,.59-1.05,4.3-3.65,.33,4.7-17.66,4.27-.39,7.78,16.53Zm-11.49-5.83l4.95-.45-3.16-7.23-1.79,7.68Z" style="fill: #fff;"/>
    <path d="M317.13,277.58c1.29-.24,2.44-.23,3.44,.03,1,.26,1.83,.75,2.48,1.46,.65,.71,1.09,1.64,1.3,2.78,.21,1.14,.15,2.16-.2,3.07-.35,.9-.94,1.66-1.78,2.27-.84,.61-1.91,1.03-3.2,1.28l-3.55,.67,1.12,5.98-3.53,.66-3.17-16.87,7.08-1.33Zm.99,8.2c1.06-.2,1.81-.57,2.25-1.12,.44-.55,.58-1.26,.42-2.13-.17-.89-.56-1.5-1.17-1.84-.61-.34-1.45-.42-2.5-.22l-3.01,.57,1,5.31,3.02-.57Z" style="fill: #fff;"/>
    <path d="M332.45,291.76l-5.11-16.38,12.29-3.83,.86,2.75-8.86,2.76,1.27,4.07,6.97-2.18,.82,2.63-6.97,2.18,1.3,4.17,9.21-2.87,.86,2.75-12.63,3.94Z" style="fill: #fff;"/>
    <path d="M356.58,267.13l-8.42,3.84,1.8,3.95,6.65-3.03,1.21,2.65-6.65,3.03,2.91,6.39-3.26,1.49-7.12-15.61,11.69-5.33,1.2,2.62Z" style="fill: #fff;"/>
    <path d="M365.78,259.03c1.72-.9,3.29-1.2,4.7-.89,1.42,.31,2.49,1.17,3.23,2.56,.78,1.49,.89,2.89,.32,4.19-.57,1.31-1.7,2.41-3.4,3.3l-.23,.35-3.27,1.72,3.06,5.82-3.13,1.65-7.99-15.19,6.7-3.52Zm3.29,7.14c.89-.47,1.46-1,1.71-1.59,.25-.59,.17-1.26-.22-2.01-.4-.75-.91-1.19-1.53-1.32-.63-.13-1.39,.04-2.27,.51l-3.2,1.68,2.32,4.42,3.2-1.68Zm2.21-.31l8.91,4.98-3.57,1.88-7.57-4.51,2.23-2.35Z" style="fill: #fff;"/>
    <path d="M389.17,247.04l4.61,9.32c1.04,2.1,1.26,3.95,.66,5.55-.6,1.6-1.97,2.93-4.12,3.99-2.14,1.06-4.03,1.34-5.67,.85s-2.98-1.79-4.01-3.89l-4.61-9.32,3.22-1.59,4.54,9.18c.64,1.29,1.39,2.11,2.24,2.46,.86,.35,1.86,.24,2.99-.32,1.13-.56,1.82-1.29,2.06-2.18,.24-.89,.04-1.98-.6-3.27l-4.54-9.18,3.24-1.6Z" style="fill: #fff;"/>
    <path d="M398.55,243.1l6.53,15.87-3.32,1.37-6.53-15.87,3.32-1.37Z" style="fill: #fff;"/>
    <path d="M418.1,236.39l.87,2.75-5.48,1.74,4.32,13.6-3.42,1.09-4.32-13.6-5.5,1.75-.87-2.75,14.4-4.58Z" style="fill: #fff;"/>
    <path d="M451.89,230.37l2.32,17-3.19,.44-1.21-8.86-.52-4.99h-.05s-2.83,14.48-2.83,14.48l-2.91,.4-6.57-13.19h-.05s.86,4.95,.86,4.95l1.21,8.86-3.22,.44-2.32-17,5.15-.7,4.33,8.86,1.6,3.69h.05s.59-3.97,.59-3.97l1.77-9.71,5-.68Z" style="fill: #fff;"/>
    <path d="M462.46,229.78l1.04,17.13-3.58,.22-1.04-17.13,3.58-.22Z" style="fill: #fff;"/>
    <path d="M483.29,246.43l-4.26,.05-3.82-6.04-3.62,6.13-4.11,.05,5.8-8.73-5.59-8.44,4.21-.05,3.53,5.73,3.44-5.81,3.9-.05-5.41,8.44,5.93,8.72Z" style="fill: #fff;"/>
    <path d="M487.26,246.55l.67-17.15,12.86,.5-.11,2.88-9.27-.36-.17,4.26,7.3,.28-.11,2.75-7.3-.29-.17,4.37,9.64,.38-.11,2.88-13.22-.52Z" style="fill: #fff;"/>
    <path d="M513.07,230.8c2.68,.22,4.69,1.12,6.04,2.72,1.35,1.6,1.91,3.77,1.69,6.51-.22,2.73-1.13,4.78-2.72,6.14-1.59,1.37-3.72,1.94-6.4,1.72l-6.61-.54,1.39-17.1,6.61,.54Zm-1.34,14.24c1.62,.13,2.89-.26,3.79-1.17,.9-.91,1.42-2.29,1.57-4.14,.15-1.85-.15-3.29-.89-4.34-.74-1.04-1.92-1.63-3.55-1.76l-2.85-.23-.92,11.4,2.85,.23Z" style="fill: #fff;"/>
  </g>
</svg>