<?xml version="1.0" encoding="UTF-8"?>
<svg id="_文字" data-name="文字" xmlns="http://www.w3.org/2000/svg" width="787" height="582" viewBox="0 0 787 582">
  <path d="M386.82,254.53l-8.63-9.67c-9.45-10.58-6.28-27.29,6.43-33.58,10.73-5.31,24.76-10.39,41.18-12.06,11.59-1.18,21.28-.88,29.83-.62,16.3,.49,25.29,.77,38.76-8.34,21.46-14.51,27.46-25.27,27.52-25.38-.19,.34-.26,.53-.26,.53l34.47,16c-1.47,3.16-10.32,19.96-40.45,40.33-23.64,15.98-42.73,15.4-61.19,14.84-7.73-.23-15.73-.48-24.84,.45-25.49,2.59-42.66,17.35-42.82,17.5Z" style="fill: #c96f13;"/>
  <path d="M608.42,149.91c-10.01,.07-18.24-1.94-25.5-3.72-11.02-2.7-18.3-4.48-31.86,.65-13.57,5.13-17.84,11.29-24.32,20.61-5.37,7.73-11.65,16.76-23.11,24.68l-19.86-32.55c4.79-3.78,7.88-8.23,11.77-13.82,7.79-11.21,17.48-25.15,42.07-34.46,24.59-9.3,41.08-5.26,54.34-2.02,11.02,2.69,18.3,4.47,31.86-.66l4.6,12.15c5.3,14.02-5,29.03-19.99,29.14Z" style="fill: #c96f13;"/>
  <g>
    <path d="M386.1,222.61c1.69-.96,3.25-1.31,4.67-1.04,1.43,.27,2.53,1.08,3.31,2.46,.83,1.46,.98,2.86,.46,4.18-.52,1.32-1.62,2.46-3.29,3.41l-.21,.36-3.21,1.82,3.25,5.72-3.07,1.75-8.48-14.92,6.58-3.74Zm3.52,7.03c.87-.5,1.43-1.04,1.65-1.64,.23-.6,.13-1.27-.29-2s-.94-1.16-1.58-1.27c-.63-.11-1.38,.08-2.26,.58l-3.14,1.78,2.47,4.34,3.14-1.78Zm2.2-.38l9.06,4.69-3.5,1.99-7.71-4.26,2.15-2.42Z" style="fill: #fff;"/>
    <path d="M410.38,212.04l3.61,9.75c.81,2.19,.84,4.06,.07,5.59-.76,1.53-2.27,2.71-4.51,3.54s-4.15,.91-5.73,.25c-1.58-.66-2.77-2.09-3.58-4.29l-3.61-9.75,3.37-1.25,3.56,9.61c.5,1.35,1.16,2.24,1.98,2.68,.82,.44,1.82,.44,3.01,0,1.19-.44,1.94-1.09,2.27-1.95,.33-.86,.24-1.97-.26-3.32l-3.56-9.61,3.39-1.25Z" style="fill: #fff;"/>
    <path d="M419.65,227.28l-3.14-16.87,7.39-1.37c2.04-.38,3.63-.26,4.75,.36,1.12,.62,1.82,1.66,2.09,3.13,.17,.9,.04,1.75-.37,2.55s-1.13,1.39-2.16,1.78v.03c1.21-.05,2.2,.23,2.96,.83s1.24,1.39,1.42,2.38c.27,1.45-.04,2.68-.94,3.69-.9,1.01-2.35,1.71-4.36,2.08l-7.64,1.42Zm1.61-10.43l3.5-.65c1.86-.35,2.65-1.24,2.38-2.69-.27-1.45-1.33-2-3.19-1.65l-3.5,.65,.81,4.35Zm1.33,7.13l3.91-.73c.96-.18,1.62-.5,2.01-.98,.39-.48,.52-1.07,.39-1.76-.13-.71-.46-1.22-.99-1.51-.53-.29-1.27-.35-2.23-.17l-3.91,.73,.82,4.42Z" style="fill: #fff;"/>
    <path d="M448.97,206.88l-5.59,11,.29,6.42-3.58,.16-.29-6.42-6.57-10.45,3.82-.17,2.99,4.99,1.42,2.64,1.2-2.76,2.52-5.24,3.79-.17Z" style="fill: #fff;"/>
    <path d="M458.97,224.39l.43-17.15,7.51,.19c2.08,.05,3.6,.5,4.57,1.34,.97,.84,1.43,2,1.4,3.49-.02,.92-.32,1.73-.89,2.42-.57,.7-1.4,1.13-2.48,1.29v.03c1.19,.2,2.1,.68,2.72,1.42,.62,.74,.92,1.62,.9,2.62-.04,1.47-.6,2.61-1.68,3.42-1.09,.8-2.65,1.18-4.7,1.13l-7.77-.19Zm3.55-2.62l3.98,.1c.97,.02,1.69-.16,2.17-.54,.48-.39,.73-.93,.74-1.65,.02-.73-.2-1.29-.66-1.68-.46-.39-1.17-.6-2.14-.63l-3.98-.1-.11,4.5Zm.18-7.25l3.56,.09c1.89,.05,2.85-.67,2.89-2.14,.04-1.47-.89-2.23-2.78-2.28l-3.56-.09-.11,4.42Z" style="fill: #fff;"/>
    <path d="M481.47,221.26l8.96-1.29,.41,2.86-12.51,1.8-2.44-16.99,3.55-.51,2.03,14.13Z" style="fill: #fff;"/>
    <path d="M510.55,213.83l-3.31,1.7-3.18-3.07-5.85,3,.64,4.38-3.26,1.67-2.26-18.13,3.82-1.96,13.41,12.41Zm-12.84-1.1l4.42-2.27-5.64-5.52,1.22,7.79Z" style="fill: #fff;"/>
    <path d="M522.46,198.74c.4,1.08,.55,2.14,.43,3.16-.12,1.02-.46,1.97-1.02,2.85-.56,.87-1.3,1.66-2.23,2.36-1.36,1.02-2.74,1.62-4.16,1.8s-2.79-.06-4.11-.71-2.54-1.71-3.64-3.18-1.79-2.93-2.04-4.38c-.26-1.45-.11-2.84,.46-4.15,.56-1.31,1.51-2.47,2.84-3.47,.94-.71,1.89-1.22,2.84-1.54,.96-.32,1.9-.41,2.83-.28s1.82,.5,2.67,1.1l-1.77,3.05c-.86-.65-1.67-.97-2.42-.96-.75,.01-1.51,.3-2.27,.88-.75,.56-1.27,1.23-1.56,2.02s-.32,1.64-.1,2.57,.72,1.91,1.49,2.93c.76,1.01,1.55,1.76,2.36,2.26,.82,.49,1.64,.71,2.46,.65,.83-.06,1.64-.39,2.44-.99,.75-.56,1.24-1.25,1.49-2.06,.25-.81,.17-1.71-.22-2.7l3.23-1.2Z" style="fill: #fff;"/>
    <path d="M519.23,184.81l12.12,12.15-2.54,2.53-12.12-12.15,2.54-2.53Zm7.93-7.92l.74,11.86h-.4l.4,6.47-2.74-1.97-.94-13.42,2.95-2.94Zm-.67,9.04l12.94,2.95-2.91,2.9-10.57-2.49,.54-3.36Z" style="fill: #fff;"/>
  </g>
  <g>
    <path d="M501.7,154.57l2.28,1.78-3.54,4.53,11.25,8.78-2.21,2.83-11.25-8.78-3.55,4.55-2.28-1.78,9.29-11.91Z" style="fill: #fff;"/>
    <path d="M516.84,162.14l-13.7-10.34,7.75-10.27,2.3,1.74-5.59,7.41,3.4,2.57,4.4-5.83,2.2,1.66-4.4,5.83,3.49,2.63,5.81-7.7,2.3,1.74-7.97,10.56Z" style="fill: #fff;"/>
    <path d="M537.94,140.68l-2.91,2.32-3.73-2.38-5.15,4.1,1.49,4.17-2.87,2.28-5.78-17.33,3.36-2.67,15.59,9.53Zm-12.8,1.45l3.89-3.09-6.62-4.3,2.73,7.4Z" style="fill: #fff;"/>
    <path d="M548.07,133.41l8.53-3.02,.96,2.72-11.91,4.22-5.73-16.18,3.38-1.2,4.76,13.46Z" style="fill: #fff;"/>
    <path d="M574.32,131.01l-3.7,.4-1.87-4.01-6.54,.7-.97,4.32-3.64,.39,4.4-17.73,4.27-.46,8.06,16.39Zm-11.59-5.63l4.94-.53-3.28-7.18-1.66,7.71Z" style="fill: #fff;"/>
    <path d="M589.42,116.16l-.39,2.86-5.69-.77-1.92,14.14-3.56-.48,1.92-14.14-5.72-.78,.39-2.86,14.97,2.03Z" style="fill: #fff;"/>
    <path d="M606.68,120.56l-.67,2.81-5.59-1.33-3.3,13.89-3.49-.83,3.3-13.89-5.62-1.33,.67-2.81,14.7,3.49Z" style="fill: #fff;"/>
    <path d="M608.69,138.1l-.61-17.15,12.86-.46,.1,2.88-9.28,.33,.15,4.26,7.3-.26,.1,2.75-7.3,.26,.16,4.37,9.64-.34,.1,2.88-13.23,.47Z" style="fill: #fff;"/>
  </g>
  <g>
    <path d="M530.51,102.47s.3-.17,.88-.46" style="fill: none; stroke: #005850; stroke-miterlimit: 10; stroke-width: .75px;"/>
    <path d="M533.15,101.17c7.51-3.36,30.41-11.42,60.04-1.3" style="fill: none; stroke: #005850; stroke-dasharray: 0 0 1.95 1.95; stroke-miterlimit: 10; stroke-width: .75px;"/>
    <path d="M594.13,100.19c.31,.11,.63,.22,.94,.34" style="fill: none; stroke: #005850; stroke-miterlimit: 10; stroke-width: .75px;"/>
    <polygon points="599.99 102.47 591.95 102.67 594.68 100.45 594.1 96.98 599.99 102.47" style="fill: #005850;"/>
  </g>
  <g>
    <path d="M506.77,236.08s.32-.12,.92-.37" style="fill: none; stroke: #005850; stroke-miterlimit: 10; stroke-width: .75px;"/>
    <path d="M509.54,234.92c8.2-3.64,32.67-16.07,48.14-40.51" style="fill: none; stroke: #005850; stroke-dasharray: 0 0 2.02 2.02; stroke-miterlimit: 10; stroke-width: .75px;"/>
    <path d="M558.23,193.54c.17-.28,.35-.57,.52-.85" style="fill: none; stroke: #005850; stroke-miterlimit: 10; stroke-width: .75px;"/>
    <polygon points="561.33 188.08 560.26 196.05 558.5 193 554.99 193.01 561.33 188.08" style="fill: #005850;"/>
  </g>
</svg>