<?xml version="1.0" encoding="UTF-8"?>
<svg id="_文字" data-name="文字" xmlns="http://www.w3.org/2000/svg" width="921" height="689" viewBox="0 0 921 689">
  <g>
    <path d="M336.94,320.65s.29-.18,.85-.51" style="fill: none; stroke: #005850; stroke-miterlimit: 10; stroke-width: .75px;"/>
    <path d="M339.51,319.16c8.16-4.53,34.65-17.75,63.5-16.45" style="fill: none; stroke: #005850; stroke-dasharray: 0 0 1.98 1.98; stroke-miterlimit: 10; stroke-width: .75px;"/>
    <path d="M404.01,302.76c.33,.02,.66,.04,1,.06" style="fill: none; stroke: #005850; stroke-miterlimit: 10; stroke-width: .75px;"/>
    <polygon points="410.26 303.35 402.58 305.71 404.61 302.84 403.12 299.66 410.26 303.35" style="fill: #005850;"/>
  </g>
  <g>
    <path d="M604.19,312.64s.35-.05,.98-.17" style="fill: none; stroke: #005850; stroke-miterlimit: 10; stroke-width: .75px;"/>
    <path d="M607.15,312.04c10.22-2.43,43.1-13.37,37.8-52.74" style="fill: none; stroke: #005850; stroke-dasharray: 0 0 2.03 2.03; stroke-miterlimit: 10; stroke-width: .75px;"/>
    <path d="M644.8,258.28c-.05-.33-.1-.66-.15-.99" style="fill: none; stroke: #005850; stroke-miterlimit: 10; stroke-width: .75px;"/>
    <polygon points="643.61 252.11 647.99 258.85 644.67 257.69 642.02 259.99 643.61 252.11" style="fill: #005850;"/>
  </g>
  <path d="M516.54,302.62c-2.83,2.04-35.61,33.72-38.83,35.67-24.87,15.01-46.92,18.43-68.24,21.73-20.75,3.21-40.36,6.25-64.95,19.98-47.62,26.59-73.94,82.22-74.2,82.78l-15.4-7.13c-11.18-5.17-15.34-18.93-8.9-29.43,13.79-22.47,40.35-58.43,79.49-80.27,30.71-17.15,55.83-21.04,77.99-24.47,19.19-2.97,35.46-6.07,54.05-16.58,23.3-13.18,29.69-25.44,33.03-28.24l25.96,25.96Z" style="fill: #b36a03;"/>
  <g>
    <path d="M266.55,446.18l-17.19-4.89,2.03-3.24,13.8,4.67-10.18-10.44,1.82-2.91,13.85,4.58-10.22-10.37,1.95-3.11,11.88,13.35-2.14,3.41-9.2-2.95-3.86-1.47-.03,.04,3.01,2.84,6.67,6.98-2.2,3.5Z" style="fill: #fff;"/>
    <path d="M266.78,414.8l13.92,10.03-2.1,2.91-13.92-10.03,2.1-2.91Z" style="fill: #fff;"/>
    <path d="M279.04,399.11l13.37,10.76-2.58,3.2-11.62-1.65-3.12-.61-.02,.02,2.37,1.78,7.74,6.23-2.02,2.51-13.37-10.76,2.56-3.18,11.6,1.63,3.14,.62,.03-.04-2.37-1.78-7.74-6.23,2.02-2.51Z" style="fill: #fff;"/>
    <path d="M291.92,385.14l2.1,1.97-3.93,4.19,10.41,9.77-2.46,2.62-10.41-9.77-3.95,4.21-2.1-1.98,10.34-11.01Z" style="fill: #fff;"/>
    <path d="M306.31,395.1l-11.55-12.69,9.52-8.66,1.94,2.13-6.86,6.25,2.87,3.15,5.4-4.92,1.86,2.04-5.4,4.92,2.94,3.23,7.13-6.49,1.94,2.13-9.79,8.91Z" style="fill: #fff;"/>
    <path d="M313.99,366.14c1.55-1.17,3.05-1.71,4.5-1.64s2.65,.75,3.6,2.01c1.01,1.34,1.35,2.7,1,4.08-.35,1.38-1.29,2.65-2.83,3.81l-.17,.39-2.95,2.22,3.96,5.25-2.82,2.13-10.34-13.7,6.04-4.56Zm4.4,6.52c.8-.6,1.28-1.22,1.43-1.84,.15-.62-.03-1.27-.54-1.95-.51-.68-1.09-1.03-1.73-1.06-.64-.03-1.36,.26-2.16,.87l-2.89,2.18,3.01,3.99,2.88-2.18Zm2.14-.67l9.59,3.48-3.22,2.43-8.2-3.23,1.82-2.68Z" style="fill: #fff;"/>
    <path d="M339.65,349.93l8.56,14.88-2.79,1.61-4.46-7.75-2.37-4.43-.05,.03,2.84,14.47-2.55,1.46-11.06-9.74-.04,.03,2.66,4.26,4.46,7.75-2.82,1.62-8.56-14.88,4.51-2.59,7.35,6.57,2.88,2.81,.04-.03-.95-3.89-2.02-9.67,4.37-2.52Z" style="fill: #fff;"/>
    <path d="M351.88,363.19l-6.81-15.75,11.81-5.11,1.15,2.65-8.52,3.69,1.69,3.91,6.71-2.9,1.09,2.53-6.71,2.9,1.73,4.01,8.85-3.83,1.15,2.65-12.15,5.26Z" style="fill: #fff;"/>
    <path d="M369.21,353.16l8.61-2.79,.89,2.75-12.02,3.9-5.29-16.32,3.41-1.11,4.4,13.58Z" style="fill: #fff;"/>
    <path d="M384.06,333.97c1.66-.37,3.16-.35,4.52,.07,1.36,.42,2.51,1.2,3.45,2.34,.94,1.14,1.61,2.6,2.02,4.4s.43,3.4,.06,4.84-1.06,2.63-2.11,3.59c-1.04,.96-2.39,1.63-4.05,2.01-1.66,.37-3.17,.35-4.53-.07-1.37-.42-2.52-1.2-3.46-2.34-.94-1.14-1.61-2.6-2.02-4.4s-.43-3.4-.07-4.84,1.07-2.63,2.12-3.6c1.05-.97,2.41-1.64,4.06-2.01Zm.65,2.87c-.93,.21-1.68,.61-2.25,1.2-.57,.59-.93,1.36-1.08,2.3-.15,.94-.09,2.03,.19,3.26,.28,1.23,.69,2.24,1.23,3.03,.54,.78,1.19,1.32,1.96,1.61,.77,.29,1.62,.33,2.55,.12,.93-.21,1.68-.61,2.24-1.2,.56-.59,.92-1.35,1.07-2.29,.15-.94,.09-2.03-.19-3.26-.28-1.23-.69-2.24-1.23-3.03-.54-.78-1.19-1.32-1.95-1.61-.76-.29-1.6-.33-2.53-.12Z" style="fill: #fff;"/>
    <path d="M411.07,329.37l2.71,16.94-4.06,.65-7.52-9.01-1.91-2.54h-.03s.57,2.91,.57,2.91l1.57,9.81-3.18,.51-2.71-16.94,4.03-.64,7.52,8.99,1.91,2.56h.05s-.57-2.92-.57-2.92l-1.57-9.81,3.18-.51Z" style="fill: #fff;"/>
    <path d="M429.43,326.22c2.63-.55,4.82-.26,6.56,.89,1.75,1.15,2.91,3.07,3.47,5.76,.57,2.68,.28,4.9-.85,6.66s-3.02,2.92-5.64,3.48l-6.49,1.37-3.54-16.79,6.49-1.37Zm2.77,14.03c1.59-.34,2.69-1.07,3.3-2.2,.6-1.13,.71-2.6,.33-4.42-.38-1.81-1.08-3.12-2.09-3.9-1.01-.79-2.31-1.01-3.9-.68l-2.8,.59,2.36,11.19,2.8-.59Z" style="fill: #fff;"/>
    <path d="M447.52,321.17c1.83-.66,3.42-.73,4.78-.22,1.36,.51,2.31,1.5,2.84,2.99,.57,1.58,.48,2.98-.26,4.2-.74,1.21-2.02,2.15-3.83,2.8l-.27,.32-3.48,1.25,2.22,6.19-3.33,1.19-5.79-16.15,7.12-2.55Zm2.26,7.53c.95-.34,1.58-.78,1.91-1.33,.33-.55,.35-1.22,.06-2.02-.29-.8-.73-1.31-1.33-1.52s-1.38-.16-2.32,.18l-3.4,1.22,1.68,4.7,3.4-1.22Zm2.24,0l8.12,6.17-3.79,1.36-6.87-5.52,2.54-2.01Z" style="fill: #fff;"/>
    <path d="M459.39,315.92l7.67,15.35-3.21,1.6-7.67-15.35,3.21-1.6Z" style="fill: #fff;"/>
    <path d="M475.1,306.18l9.49,14.3-3.42,2.27-10.58-5.08-2.79-1.52h-.02s1.73,2.43,1.73,2.43l5.49,8.28-2.69,1.78-9.49-14.3,3.4-2.26,10.57,5.06,2.8,1.54,.04-.03-1.73-2.41-5.49-8.28,2.69-1.78Z" style="fill: #fff;"/>
    <path d="M480.21,301.54l12.14,12.13-2.54,2.54-12.14-12.13,2.54-2.54Zm7.92-7.93l.76,11.86h-.4l.41,6.47-2.74-1.97-.96-13.42,2.94-2.94Zm-.66,9.04l12.94,2.94-2.9,2.91-10.57-2.48,.53-3.37Z" style="fill: #fff;"/>
  </g>
  <path d="M631.36,259.78c3.12,11.22-3.37,22.87-14.57,26.08-24.97,7.15-61.92,19.84-83.95,51.62-41.74,60.22-118.11,62.47-149,62.47-8.77,0-14.33-.53-15.26-.63l3.98-38.8c.83,.08,85.69,9.57,130.56-48.3,41.01-52.89,98.83-61.53,123.4-69.82l4.83,17.38Z" style="fill: #b36a03;"/>
  <g>
    <path d="M385.43,388.49l-5.51-17,3.82-.12,3.8,14.06,3-14.27,3.43-.1,3.91,14.06,2.93-14.26,3.66-.11-4.47,17.3-4.03,.12-2.67-9.28-.93-4.03h-.05s-.68,4.08-.68,4.08l-2.08,9.43-4.13,.12Z" style="fill: #fff;"/>
    <path d="M410.28,369.77l1.9,17.05-3.57,.4-1.9-17.05,3.57-.4Z" style="fill: #fff;"/>
    <path d="M427.75,367.01l.49,2.84-5.66,.98,2.43,14.07-3.54,.61-2.43-14.07-5.69,.98-.49-2.84,14.89-2.57Z" style="fill: #fff;"/>
    <path d="M433.54,365.56l4.47,16.57-3.46,.93-4.47-16.57,3.46-.93Zm10.95,4.35l.75,2.79-10.84,2.92-.75-2.79,10.84-2.92Zm-.18-7.25l4.47,16.57-3.46,.93-4.47-16.57,3.46-.93Z" style="fill: #fff;"/>
    <path d="M475.01,368.79l-3.4,1.49-2.99-3.26-6.02,2.64,.37,4.41-3.36,1.47-1.16-18.23,3.93-1.72,12.63,13.2Zm-12.75-1.87l4.55-2-5.29-5.85,.75,7.85Z" style="fill: #fff;"/>
    <path d="M480,362.66l7.83-4.53,1.44,2.5-10.94,6.32-8.58-14.86,3.11-1.79,7.14,12.36Z" style="fill: #fff;"/>
    <path d="M497.27,333.19l10.59,13.5-2.54,1.99-5.52-7.04-2.97-4.04-.04,.03,4.87,13.92-2.31,1.81-12.34-8.07-.04,.03,3.24,3.84,5.52,7.04-2.56,2-10.59-13.5,4.09-3.21,8.21,5.46,3.25,2.38,.04-.03-1.49-3.72-3.38-9.28,3.97-3.11Z" style="fill: #fff;"/>
    <path d="M504.59,325.04c1.15-1.25,2.4-2.09,3.76-2.52s2.74-.44,4.17-.04c1.42,.4,2.81,1.22,4.16,2.46,1.35,1.24,2.29,2.56,2.81,3.94,.52,1.38,.62,2.77,.31,4.16-.31,1.39-1.04,2.71-2.19,3.96-1.15,1.25-2.4,2.09-3.77,2.53-1.36,.43-2.75,.45-4.18,.05-1.42-.4-2.81-1.22-4.16-2.46-1.35-1.24-2.29-2.55-2.81-3.94-.52-1.38-.62-2.77-.31-4.16,.31-1.39,1.05-2.72,2.2-3.97Zm2.16,1.99c-.65,.7-1.03,1.46-1.16,2.27-.13,.81,0,1.64,.42,2.5,.41,.86,1.08,1.72,2.01,2.57,.93,.86,1.84,1.45,2.74,1.79,.89,.34,1.73,.4,2.53,.21s1.51-.65,2.16-1.35c.64-.7,1.03-1.46,1.15-2.26,.13-.8-.02-1.63-.43-2.49-.41-.86-1.08-1.72-2.01-2.57s-1.84-1.45-2.74-1.79c-.89-.34-1.73-.41-2.52-.21-.79,.19-1.51,.64-2.15,1.34Z" style="fill: #fff;"/>
    <path d="M523.24,305.33l12.22,12.05-2.88,2.92-11.4-2.81-3.04-.92-.02,.02,2.18,2.01,7.07,6.97-2.26,2.3-12.22-12.05,2.87-2.91,11.38,2.79,3.06,.93,.04-.04-2.18-2.01-7.07-6.97,2.26-2.3Z" style="fill: #fff;"/>
    <path d="M532.69,297.2c2.08-1.7,4.16-2.44,6.24-2.23,2.08,.22,3.99,1.39,5.73,3.52,1.73,2.12,2.5,4.22,2.3,6.31-.2,2.09-1.34,3.98-3.42,5.68l-5.13,4.2-10.86-13.29,5.13-4.2Zm8.91,11.19c1.26-1.03,1.9-2.19,1.92-3.47s-.56-2.64-1.73-4.07c-1.17-1.44-2.39-2.27-3.65-2.51-1.26-.24-2.52,.16-3.78,1.19l-2.21,1.81,7.24,8.86,2.21-1.81Z" style="fill: #fff;"/>
    <path d="M559.75,278.72l5.53,9.32c1.05,1.77,1.38,3.46,.97,5.05-.41,1.59-1.53,2.93-3.36,4.02-1.31,.78-2.52,1.17-3.62,1.18-1.1,0-2.07-.33-2.89-1s-1.47-1.63-1.94-2.87l2.68-2.32c.6,1.42,1.24,2.32,1.93,2.69,.69,.38,1.49,.29,2.42-.26,.97-.58,1.47-1.27,1.49-2.1,.03-.82-.31-1.82-1.01-3l-5.28-8.9,3.09-1.83Z" style="fill: #fff;"/>
    <path d="M571.84,291.71l-7.21-15.57,11.68-5.41,1.21,2.62-8.42,3.9,1.79,3.87,6.63-3.07,1.16,2.5-6.63,3.07,1.84,3.96,8.75-4.05,1.21,2.62-12.01,5.56Z" style="fill: #fff;"/>
    <path d="M588.91,281.3l8.56-2.93,.93,2.73-11.96,4.09-5.55-16.24,3.4-1.16,4.62,13.51Z" style="fill: #fff;"/>
    <path d="M603.71,276.87l8.82-2.02,.65,2.81-12.32,2.83-3.84-16.73,3.5-.8,3.19,13.91Z" style="fill: #fff;"/>
    <path d="M623.92,258.91l-4.55,11.47,.88,6.36-3.55,.49-.88-6.36-7.5-9.8,3.79-.53,3.43,4.7,1.66,2.5,.94-2.86,2.03-5.45,3.76-.52Z" style="fill: #fff;"/>
  </g>
</svg>